# xmcd CD database file generated by Grip 3.3.1
# 
# Track frame offsets:
#       150
#       13425
#       33796
#       48382
#       63446
#       77244
#       89911
#       101763
#       118082
#       133561
#       146286
#       159546
#       174662
#       183514
#       207779
#       230321
#       240390
#       254636
#       266086
#       279759
# 
# Disc length: 3918 seconds
# 
# Revision: 1
# Processed by: cddbd v1.5.2PL0 Copyright (c) Steve Scherf et al.
# Submitted via: Grip 3.3.1
# 
DISCID=1e0f4c14
DTITLE=Various Artist - Gypsy Knights
DYEAR=2006
DGENRE=Jazz
TTITLE0=Django Reinhardt - Djangologie
TTITLE1=Tchavolo Schmitt - Angela
TTITLE2=Angelo Debarre Ludovic Beier - Entre amis
TTITLE3=Biréli Lagrène - B.L.
TTITLE4=Mandino Reinhardt - Choukar Gaïga
TTITLE5=Dorado Schmitt Pierre Blanchard - Sinti Rhapsodie
TTITLE6=Florin Niculescu - Lady is a tramp
TTITLE7=Marcel Loeffler - Pont de venise
TTITLE8=Les pommes de ma douche - Saint Pierre blues
TTITLE9=Django Reinhardt - Swing
TTITLE10=Tchavolo Schmitt - Valse à Dora
TTITLE11=Angelo Debarre Ludovic Beier - Come into my swing
TTITLE12=Biréli Lagrène - Bireli hi gorogo
TTITLE13=Mandino Reinhardt - Davïdo
TTITLE14=Dorado Schmitt Pierre Blanchard - Balladorado
TTITLE15=Raphael Fays - Romantique voyage
TTITLE16=Les pommes de ma douche - Fleur bleue
TTITLE17=David Rivière - A Saint ouen
TTITLE18=Angelo debarre Tchavolo Schmitt - Valse à Tchavolo
TTITLE19=Django Reinhardt - Blues clair
EXTD=YEAR: 2006
EXTT0=
EXTT1=
EXTT2=
EXTT3=
EXTT4=
EXTT5=
EXTT6=
EXTT7=
EXTT8=
EXTT9=
EXTT10=
EXTT11=
EXTT12=
EXTT13=
EXTT14=
EXTT15=
EXTT16=
EXTT17=
EXTT18=
EXTT19=
PLAYORDER=
